# xmcd
#
# Track frame offsets:
#	150
#	17943
#	34306
#	51780
#	67042
#	84897
#	100440
#	117744
#	130192
#	143129
#	160484
#	175733
#	191245
#	208108
#	223173
#	241046
#	255751
#	270039
#
# Disc length: 3827 seconds
#
# Revision: 5
# Processed by: cddbd v1.5.1PL2 Copyright (c) Steve Scherf et al.
# Submitted via: audiograbber 1.83.01
#
DISCID=050ef112
DTITLE=Various Artist - Promo Country August 1996
DYEAR=1996
DGENRE=Country
TTITLE0=Clint Black - Like The Rain
TTITLE1=Paul Brandt - I Do
TTITLE2=Sawyer Brown - She's Gettin' There
TTITLE3=Travis Tritt - More Than You'll Ever Know
TTITLE4=Linda Davis - Walk Away
TTITLE5=David Kersh - Goodnight Sweetheart
TTITLE6=Western Flyer - What Will You Do With M-E
TTITLE7=David Ball - Hangin' In And Hangin' Out
TTITLE8=LeAnn Rimes - Hurt Me
TTITLE9=Thrasher and Shiver - Goin' Goin' Gone
TTITLE10=Chris Ward - Fall Reaching
TTITLE11=Martina McBride - Swingin' Doors
TTITLE12=Lyle Lovett - Don't Touch My Hat
TTITLE13=Great Plains - Healing Hands
TTITLE14=Baker and Myers - A Little Bit Of Honey (Dance Remix)
TTITLE15=Johnny Rodriguez - You Can Say That Again
TTITLE16=Highway Angels - Convoy Preacher
TTITLE17=Dwayne Laws - It's Still You
EXTD=
EXTT0=
EXTT1=
EXTT2=
EXTT3=
EXTT4=
EXTT5=
EXTT6=
EXTT7=
EXTT8=
EXTT9=
EXTT10=
EXTT11=
EXTT12=
EXTT13=
EXTT14=
EXTT15=
EXTT16=
EXTT17=
PLAYORDER=
